<?xml version="1.0" encoding="UTF-8" standalone="no"?>
<!DOCTYPE svg PUBLIC "-//W3C//DTD SVG 1.1//EN"
 "http://www.w3.org/Graphics/SVG/1.1/DTD/svg11.dtd">
<!-- Generated by graphviz version 2.50.0 (20211204.2007)
 -->
<!-- Title: Tree Pages: 1 -->
<svg width="844pt" height="433pt"
 viewBox="0.00 0.00 844.00 433.00" xmlns="http://www.w3.org/2000/svg" xmlns:xlink="http://www.w3.org/1999/xlink">
<g id="graph0" class="graph" transform="scale(1 1) rotate(0) translate(4 429)">
<title>Tree</title>
<polygon fill="white" stroke="transparent" points="-4,4 -4,-429 840,-429 840,4 -4,4"/>
<!-- 0 -->
<g id="node1" class="node">
<title>0</title>
<path fill="#fcefe7" stroke="black" d="M589,-425C589,-425 426,-425 426,-425 420,-425 414,-419 414,-413 414,-413 414,-354 414,-354 414,-348 420,-342 426,-342 426,-342 589,-342 589,-342 595,-342 601,-348 601,-354 601,-354 601,-413 601,-413 601,-419 595,-425 589,-425"/>
<text text-anchor="start" x="422" y="-409.8" font-family="Helvetica,sans-Serif" font-size="14.00">flipper_length_mm ≤ 206.0</text>
<text text-anchor="start" x="470" y="-394.8" font-family="Helvetica,sans-Serif" font-size="14.00">gini = 0.644</text>
<text text-anchor="start" x="460" y="-379.8" font-family="Helvetica,sans-Serif" font-size="14.00">samples = 249</text>
<text text-anchor="start" x="442.5" y="-364.8" font-family="Helvetica,sans-Serif" font-size="14.00">value = [107, 55, 87]</text>
<text text-anchor="start" x="459" y="-349.8" font-family="Helvetica,sans-Serif" font-size="14.00">class = Gentoo</text>
</g>
<!-- 1 -->
<g id="node2" class="node">
<title>1</title>
<path fill="#f1bd97" stroke="black" d="M482,-306C482,-306 313,-306 313,-306 307,-306 301,-300 301,-294 301,-294 301,-235 301,-235 301,-229 307,-223 313,-223 313,-223 482,-223 482,-223 488,-223 494,-229 494,-235 494,-235 494,-294 494,-294 494,-300 488,-306 482,-306"/>
<text text-anchor="start" x="309" y="-290.8" font-family="Helvetica,sans-Serif" font-size="14.00">culmen_length_mm ≤ 43.35</text>
<text text-anchor="start" x="360" y="-275.8" font-family="Helvetica,sans-Serif" font-size="14.00">gini = 0.437</text>
<text text-anchor="start" x="350" y="-260.8" font-family="Helvetica,sans-Serif" font-size="14.00">samples = 155</text>
<text text-anchor="start" x="337" y="-245.8" font-family="Helvetica,sans-Serif" font-size="14.00">value = [105, 50, 0]</text>
<text text-anchor="start" x="349" y="-230.8" font-family="Helvetica,sans-Serif" font-size="14.00">class = Gentoo</text>
</g>
<!-- 0&#45;&gt;1 -->
<g id="edge1" class="edge">
<title>0&#45;&gt;1</title>
<path fill="none" stroke="black" d="M469.34,-341.91C460.72,-332.74 451.49,-322.93 442.62,-313.49"/>
<polygon fill="black" stroke="black" points="445,-310.91 435.6,-306.02 439.9,-315.7 445,-310.91"/>
<text text-anchor="middle" x="434.83" y="-327.31" font-family="Helvetica,sans-Serif" font-size="14.00">True</text>
</g>
<!-- 8 -->
<g id="node9" class="node">
<title>8</title>
<path fill="#8b49e7" stroke="black" d="M659,-306C659,-306 542,-306 542,-306 536,-306 530,-300 530,-294 530,-294 530,-235 530,-235 530,-229 536,-223 542,-223 542,-223 659,-223 659,-223 665,-223 671,-229 671,-235 671,-235 671,-294 671,-294 671,-300 665,-306 659,-306"/>
<text text-anchor="start" x="538" y="-290.8" font-family="Helvetica,sans-Serif" font-size="14.00">island_Biscoe ≤ 0.5</text>
<text text-anchor="start" x="567" y="-275.8" font-family="Helvetica,sans-Serif" font-size="14.00">gini = 0.14</text>
<text text-anchor="start" x="557" y="-260.8" font-family="Helvetica,sans-Serif" font-size="14.00">samples = 94</text>
<text text-anchor="start" x="548" y="-245.8" font-family="Helvetica,sans-Serif" font-size="14.00">value = [2, 5, 87]</text>
<text text-anchor="start" x="555.5" y="-230.8" font-family="Helvetica,sans-Serif" font-size="14.00">class = Adelie</text>
</g>
<!-- 0&#45;&gt;8 -->
<g id="edge8" class="edge">
<title>0&#45;&gt;8</title>
<path fill="none" stroke="black" d="M539.77,-341.91C546.91,-332.92 554.54,-323.32 561.91,-314.05"/>
<polygon fill="black" stroke="black" points="564.81,-316.03 568.29,-306.02 559.33,-311.67 564.81,-316.03"/>
<text text-anchor="middle" x="571.13" y="-327.16" font-family="Helvetica,sans-Serif" font-size="14.00">False</text>
</g>
<!-- 2 -->
<g id="node3" class="node">
<title>2</title>
<path fill="#e68743" stroke="black" d="M280,-187C280,-187 111,-187 111,-187 105,-187 99,-181 99,-175 99,-175 99,-116 99,-116 99,-110 105,-104 111,-104 111,-104 280,-104 280,-104 286,-104 292,-110 292,-116 292,-116 292,-175 292,-175 292,-181 286,-187 280,-187"/>
<text text-anchor="start" x="107" y="-171.8" font-family="Helvetica,sans-Serif" font-size="14.00">culmen_length_mm ≤ 42.35</text>
<text text-anchor="start" x="158" y="-156.8" font-family="Helvetica,sans-Serif" font-size="14.00">gini = 0.088</text>
<text text-anchor="start" x="148" y="-141.8" font-family="Helvetica,sans-Serif" font-size="14.00">samples = 108</text>
<text text-anchor="start" x="139" y="-126.8" font-family="Helvetica,sans-Serif" font-size="14.00">value = [103, 5, 0]</text>
<text text-anchor="start" x="147" y="-111.8" font-family="Helvetica,sans-Serif" font-size="14.00">class = Gentoo</text>
</g>
<!-- 1&#45;&gt;2 -->
<g id="edge2" class="edge">
<title>1&#45;&gt;2</title>
<path fill="none" stroke="black" d="M327.42,-222.91C310.34,-213.02 291.96,-202.37 274.49,-192.25"/>
<polygon fill="black" stroke="black" points="275.87,-189 265.46,-187.02 272.36,-195.06 275.87,-189"/>
</g>
<!-- 5 -->
<g id="node6" class="node">
<title>5</title>
<path fill="#42e687" stroke="black" d="M455.5,-187C455.5,-187 339.5,-187 339.5,-187 333.5,-187 327.5,-181 327.5,-175 327.5,-175 327.5,-116 327.5,-116 327.5,-110 333.5,-104 339.5,-104 339.5,-104 455.5,-104 455.5,-104 461.5,-104 467.5,-110 467.5,-116 467.5,-116 467.5,-175 467.5,-175 467.5,-181 461.5,-187 455.5,-187"/>
<text text-anchor="start" x="335.5" y="-171.8" font-family="Helvetica,sans-Serif" font-size="14.00">island_Dream ≤ 0.5</text>
<text text-anchor="start" x="360" y="-156.8" font-family="Helvetica,sans-Serif" font-size="14.00">gini = 0.081</text>
<text text-anchor="start" x="354" y="-141.8" font-family="Helvetica,sans-Serif" font-size="14.00">samples = 47</text>
<text text-anchor="start" x="345" y="-126.8" font-family="Helvetica,sans-Serif" font-size="14.00">value = [2, 45, 0]</text>
<text text-anchor="start" x="343" y="-111.8" font-family="Helvetica,sans-Serif" font-size="14.00">class = Chinstrap</text>
</g>
<!-- 1&#45;&gt;5 -->
<g id="edge5" class="edge">
<title>1&#45;&gt;5</title>
<path fill="none" stroke="black" d="M397.5,-222.91C397.5,-214.65 397.5,-205.86 397.5,-197.3"/>
<polygon fill="black" stroke="black" points="401,-197.02 397.5,-187.02 394,-197.02 401,-197.02"/>
</g>
<!-- 3 -->
<g id="node4" class="node">
<title>3</title>
<path fill="#e5823b" stroke="black" d="M109,-68C109,-68 12,-68 12,-68 6,-68 0,-62 0,-56 0,-56 0,-12 0,-12 0,-6 6,0 12,0 12,0 109,0 109,0 115,0 121,-6 121,-12 121,-12 121,-56 121,-56 121,-62 115,-68 109,-68"/>
<text text-anchor="start" x="27" y="-52.8" font-family="Helvetica,sans-Serif" font-size="14.00">gini = 0.02</text>
<text text-anchor="start" x="17" y="-37.8" font-family="Helvetica,sans-Serif" font-size="14.00">samples = 99</text>
<text text-anchor="start" x="8" y="-22.8" font-family="Helvetica,sans-Serif" font-size="14.00">value = [98, 1, 0]</text>
<text text-anchor="start" x="12" y="-7.8" font-family="Helvetica,sans-Serif" font-size="14.00">class = Gentoo</text>
</g>
<!-- 2&#45;&gt;3 -->
<g id="edge3" class="edge">
<title>2&#45;&gt;3</title>
<path fill="none" stroke="black" d="M145.23,-103.73C133.54,-94.24 121.1,-84.16 109.46,-74.72"/>
<polygon fill="black" stroke="black" points="111.53,-71.88 101.55,-68.3 107.12,-77.32 111.53,-71.88"/>
</g>
<!-- 4 -->
<g id="node5" class="node">
<title>4</title>
<path fill="#fae6d7" stroke="black" d="M240,-68C240,-68 151,-68 151,-68 145,-68 139,-62 139,-56 139,-56 139,-12 139,-12 139,-6 145,0 151,0 151,0 240,0 240,0 246,0 252,-6 252,-12 252,-12 252,-56 252,-56 252,-62 246,-68 240,-68"/>
<text text-anchor="start" x="158" y="-52.8" font-family="Helvetica,sans-Serif" font-size="14.00">gini = 0.494</text>
<text text-anchor="start" x="156" y="-37.8" font-family="Helvetica,sans-Serif" font-size="14.00">samples = 9</text>
<text text-anchor="start" x="147" y="-22.8" font-family="Helvetica,sans-Serif" font-size="14.00">value = [5, 4, 0]</text>
<text text-anchor="start" x="147" y="-7.8" font-family="Helvetica,sans-Serif" font-size="14.00">class = Gentoo</text>
</g>
<!-- 2&#45;&gt;4 -->
<g id="edge4" class="edge">
<title>2&#45;&gt;4</title>
<path fill="none" stroke="black" d="M195.5,-103.73C195.5,-95.52 195.5,-86.86 195.5,-78.56"/>
<polygon fill="black" stroke="black" points="199,-78.3 195.5,-68.3 192,-78.3 199,-78.3"/>
</g>
<!-- 6 -->
<g id="node7" class="node">
<title>6</title>
<path fill="#e58139" stroke="black" d="M371,-68C371,-68 282,-68 282,-68 276,-68 270,-62 270,-56 270,-56 270,-12 270,-12 270,-6 276,0 282,0 282,0 371,0 371,0 377,0 383,-6 383,-12 383,-12 383,-56 383,-56 383,-62 377,-68 371,-68"/>
<text text-anchor="start" x="297.5" y="-52.8" font-family="Helvetica,sans-Serif" font-size="14.00">gini = 0.0</text>
<text text-anchor="start" x="287" y="-37.8" font-family="Helvetica,sans-Serif" font-size="14.00">samples = 2</text>
<text text-anchor="start" x="278" y="-22.8" font-family="Helvetica,sans-Serif" font-size="14.00">value = [2, 0, 0]</text>
<text text-anchor="start" x="278" y="-7.8" font-family="Helvetica,sans-Serif" font-size="14.00">class = Gentoo</text>
</g>
<!-- 5&#45;&gt;6 -->
<g id="edge6" class="edge">
<title>5&#45;&gt;6</title>
<path fill="none" stroke="black" d="M371.06,-103.73C365.38,-94.97 359.38,-85.7 353.67,-76.91"/>
<polygon fill="black" stroke="black" points="356.47,-74.79 348.09,-68.3 350.6,-78.59 356.47,-74.79"/>
</g>
<!-- 7 -->
<g id="node8" class="node">
<title>7</title>
<path fill="#39e581" stroke="black" d="M514,-68C514,-68 413,-68 413,-68 407,-68 401,-62 401,-56 401,-56 401,-12 401,-12 401,-6 407,0 413,0 413,0 514,0 514,0 520,0 526,-6 526,-12 526,-12 526,-56 526,-56 526,-62 520,-68 514,-68"/>
<text text-anchor="start" x="434.5" y="-52.8" font-family="Helvetica,sans-Serif" font-size="14.00">gini = 0.0</text>
<text text-anchor="start" x="420" y="-37.8" font-family="Helvetica,sans-Serif" font-size="14.00">samples = 45</text>
<text text-anchor="start" x="411" y="-22.8" font-family="Helvetica,sans-Serif" font-size="14.00">value = [0, 45, 0]</text>
<text text-anchor="start" x="409" y="-7.8" font-family="Helvetica,sans-Serif" font-size="14.00">class = Chinstrap</text>
</g>
<!-- 5&#45;&gt;7 -->
<g id="edge7" class="edge">
<title>5&#45;&gt;7</title>
<path fill="none" stroke="black" d="M422.08,-103.73C427.35,-94.97 432.94,-85.7 438.24,-76.91"/>
<polygon fill="black" stroke="black" points="441.26,-78.67 443.43,-68.3 435.27,-75.06 441.26,-78.67"/>
</g>
<!-- 9 -->
<g id="node10" class="node">
<title>9</title>
<path fill="#88efb3" stroke="black" d="M685,-187C685,-187 516,-187 516,-187 510,-187 504,-181 504,-175 504,-175 504,-116 504,-116 504,-110 510,-104 516,-104 516,-104 685,-104 685,-104 691,-104 697,-110 697,-116 697,-116 697,-175 697,-175 697,-181 691,-187 685,-187"/>
<text text-anchor="start" x="512" y="-171.8" font-family="Helvetica,sans-Serif" font-size="14.00">culmen_length_mm ≤ 46.55</text>
<text text-anchor="start" x="563" y="-156.8" font-family="Helvetica,sans-Serif" font-size="14.00">gini = 0.408</text>
<text text-anchor="start" x="561" y="-141.8" font-family="Helvetica,sans-Serif" font-size="14.00">samples = 7</text>
<text text-anchor="start" x="552" y="-126.8" font-family="Helvetica,sans-Serif" font-size="14.00">value = [2, 5, 0]</text>
<text text-anchor="start" x="546" y="-111.8" font-family="Helvetica,sans-Serif" font-size="14.00">class = Chinstrap</text>
</g>
<!-- 8&#45;&gt;9 -->
<g id="edge9" class="edge">
<title>8&#45;&gt;9</title>
<path fill="none" stroke="black" d="M600.5,-222.91C600.5,-214.65 600.5,-205.86 600.5,-197.3"/>
<polygon fill="black" stroke="black" points="604,-197.02 600.5,-187.02 597,-197.02 604,-197.02"/>
</g>
<!-- 12 -->
<g id="node13" class="node">
<title>12</title>
<path fill="#8139e5" stroke="black" d="M824,-179.5C824,-179.5 727,-179.5 727,-179.5 721,-179.5 715,-173.5 715,-167.5 715,-167.5 715,-123.5 715,-123.5 715,-117.5 721,-111.5 727,-111.5 727,-111.5 824,-111.5 824,-111.5 830,-111.5 836,-117.5 836,-123.5 836,-123.5 836,-167.5 836,-167.5 836,-173.5 830,-179.5 824,-179.5"/>
<text text-anchor="start" x="746.5" y="-164.3" font-family="Helvetica,sans-Serif" font-size="14.00">gini = 0.0</text>
<text text-anchor="start" x="732" y="-149.3" font-family="Helvetica,sans-Serif" font-size="14.00">samples = 87</text>
<text text-anchor="start" x="723" y="-134.3" font-family="Helvetica,sans-Serif" font-size="14.00">value = [0, 0, 87]</text>
<text text-anchor="start" x="730.5" y="-119.3" font-family="Helvetica,sans-Serif" font-size="14.00">class = Adelie</text>
</g>
<!-- 8&#45;&gt;12 -->
<g id="edge12" class="edge">
<title>8&#45;&gt;12</title>
<path fill="none" stroke="black" d="M661.22,-222.91C679.37,-210.77 699.23,-197.49 717.22,-185.46"/>
<polygon fill="black" stroke="black" points="719.52,-188.13 725.89,-179.67 715.63,-182.32 719.52,-188.13"/>
</g>
<!-- 10 -->
<g id="node11" class="node">
<title>10</title>
<path fill="#e58139" stroke="black" d="M645,-68C645,-68 556,-68 556,-68 550,-68 544,-62 544,-56 544,-56 544,-12 544,-12 544,-6 550,0 556,0 556,0 645,0 645,0 651,0 657,-6 657,-12 657,-12 657,-56 657,-56 657,-62 651,-68 645,-68"/>
<text text-anchor="start" x="571.5" y="-52.8" font-family="Helvetica,sans-Serif" font-size="14.00">gini = 0.0</text>
<text text-anchor="start" x="561" y="-37.8" font-family="Helvetica,sans-Serif" font-size="14.00">samples = 2</text>
<text text-anchor="start" x="552" y="-22.8" font-family="Helvetica,sans-Serif" font-size="14.00">value = [2, 0, 0]</text>
<text text-anchor="start" x="552" y="-7.8" font-family="Helvetica,sans-Serif" font-size="14.00">class = Gentoo</text>
</g>
<!-- 9&#45;&gt;10 -->
<g id="edge10" class="edge">
<title>9&#45;&gt;10</title>
<path fill="none" stroke="black" d="M600.5,-103.73C600.5,-95.52 600.5,-86.86 600.5,-78.56"/>
<polygon fill="black" stroke="black" points="604,-78.3 600.5,-68.3 597,-78.3 604,-78.3"/>
</g>
<!-- 11 -->
<g id="node12" class="node">
<title>11</title>
<path fill="#39e581" stroke="black" d="M788,-68C788,-68 687,-68 687,-68 681,-68 675,-62 675,-56 675,-56 675,-12 675,-12 675,-6 681,0 687,0 687,0 788,0 788,0 794,0 800,-6 800,-12 800,-12 800,-56 800,-56 800,-62 794,-68 788,-68"/>
<text text-anchor="start" x="708.5" y="-52.8" font-family="Helvetica,sans-Serif" font-size="14.00">gini = 0.0</text>
<text text-anchor="start" x="698" y="-37.8" font-family="Helvetica,sans-Serif" font-size="14.00">samples = 5</text>
<text text-anchor="start" x="689" y="-22.8" font-family="Helvetica,sans-Serif" font-size="14.00">value = [0, 5, 0]</text>
<text text-anchor="start" x="683" y="-7.8" font-family="Helvetica,sans-Serif" font-size="14.00">class = Chinstrap</text>
</g>
<!-- 9&#45;&gt;11 -->
<g id="edge11" class="edge">
<title>9&#45;&gt;11</title>
<path fill="none" stroke="black" d="M651.51,-103.73C663.38,-94.24 676,-84.16 687.81,-74.72"/>
<polygon fill="black" stroke="black" points="690.21,-77.28 695.84,-68.3 685.84,-71.81 690.21,-77.28"/>
</g>
</g>
</svg>
